<svg width="16" height="14" viewBox="0 0 16 14" fill="none" xmlns="http://www.w3.org/2000/svg">
<path id="Vector" d="M2.04866 7.4849L7.75952 13.1305C7.89839 13.269 8.10669 13.269 8.24555 13.1305L13.9564 7.4849C14.1994 7.25977 14.3904 7 14.5639 6.72292C15.5013 5.18164 15.2409 3.20742 13.9564 1.92591C13.21 1.18125 12.2032 0.765625 11.1444 0.765625C9.47799 0.765625 8.43649 1.73542 8.00254 2.28958C7.56858 1.73542 6.52709 0.765625 4.86069 0.765625C3.80184 0.765625 2.79506 1.18125 2.04866 1.92591C0.746791 3.20742 0.503776 5.18164 1.44112 6.72292C1.6147 7 1.80564 7.25977 2.04866 7.4849Z" fill="#EF403D"/>
</svg>
