<svg width="23" height="22" viewBox="0 0 23 22" fill="none" xmlns="http://www.w3.org/2000/svg">
<g id="Icon/light/plus">
<path id="Vector" d="M17.6667 10.0834H12.1667V4.58335C12.1667 4.34024 12.0701 4.10708 11.8982 3.93517C11.7263 3.76326 11.4931 3.66669 11.25 3.66669C11.0069 3.66669 10.7737 3.76326 10.6018 3.93517C10.4299 4.10708 10.3333 4.34024 10.3333 4.58335V10.0834H4.83332C4.59021 10.0834 4.35705 10.1799 4.18514 10.3518C4.01323 10.5237 3.91666 10.7569 3.91666 11C3.91666 11.2431 4.01323 11.4763 4.18514 11.6482C4.35705 11.8201 4.59021 11.9167 4.83332 11.9167H10.3333V17.4167C10.3333 17.6598 10.4299 17.893 10.6018 18.0649C10.7737 18.2368 11.0069 18.3334 11.25 18.3334C11.4931 18.3334 11.7263 18.2368 11.8982 18.0649C12.0701 17.893 12.1667 17.6598 12.1667 17.4167V11.9167H17.6667C17.9098 11.9167 18.1429 11.8201 18.3148 11.6482C18.4867 11.4763 18.5833 11.2431 18.5833 11C18.5833 10.7569 18.4867 10.5237 18.3148 10.3518C18.1429 10.1799 17.9098 10.0834 17.6667 10.0834Z" fill="white"/>
</g>
</svg>
