<svg width="16" height="14" viewBox="0 0 16 14" fill="none" xmlns="http://www.w3.org/2000/svg">
<path id="Vector" opacity="0.5" d="M7.71631 13.1305L2.00545 7.4849C1.76243 7.25977 1.57149 7 1.39791 6.72292C0.460567 5.18164 0.703582 3.20742 2.00545 1.92591C2.75185 1.18125 3.75863 0.765625 4.81749 0.765625C6.48388 0.765625 7.52537 1.73542 7.95933 2.28958C8.39328 1.73542 9.43478 0.765625 11.1012 0.765625C12.16 0.765625 13.1668 1.18125 13.9132 1.92591C15.1977 3.20742 15.4581 5.18164 14.5207 6.72292C14.3472 7 14.1562 7.25977 13.9132 7.4849L8.20234 13.1305C8.06348 13.269 7.85518 13.269 7.71631 13.1305ZM4.81749 1.45833C3.93221 1.45833 3.11638 1.80469 2.49148 2.41081C1.43263 3.46719 1.22433 5.09505 1.98809 6.35924C2.12696 6.58437 2.30054 6.8095 2.49148 7L7.95933 12.4031L13.4272 7C13.6181 6.8095 13.7917 6.60169 13.9306 6.35924C14.6943 5.07773 14.5034 3.44987 13.4272 2.41081C12.8023 1.80469 11.9691 1.45833 11.1012 1.45833C9.85137 1.45833 8.80988 2.13372 8.25442 3.06888C8.11555 3.29401 7.78574 3.29401 7.64688 3.06888C7.10877 2.13372 6.06728 1.45833 4.81749 1.45833Z" fill="#EF403D"/>
</svg>
